<svg width="36" height="36" viewBox="0 0 36 36" fill="none" xmlns="http://www.w3.org/2000/svg">
<circle cx="18" cy="18" r="18" fill="#1FC57F"/>
<path fill-rule="evenodd" clip-rule="evenodd" d="M15.2619 15.0462C15.2619 13.4828 16.4878 12.2154 18 12.2154C19.5122 12.2154 20.7381 13.4828 20.7381 15.0462C20.7381 16.6096 19.5122 17.8769 18 17.8769C16.4878 17.8769 15.2619 16.6096 15.2619 15.0462ZM18 10C15.3043 10 13.119 12.2592 13.119 15.0462C13.119 16.4203 13.6503 17.6661 14.5121 18.5761C13.029 19.1993 11.7419 20.2086 10.745 21.4796C10.6726 21.57 10.6164 21.6694 10.5762 21.7735C10.4571 22.0822 10.478 22.434 10.6364 22.7262C10.6894 22.8241 10.7577 22.915 10.8408 22.995C12.7266 24.8446 15.1603 26 18 26C20.8397 26 23.2733 24.8446 25.1592 22.9947C25.3655 22.7966 25.4803 22.5305 25.4977 22.257C25.508 22.0943 25.4838 21.9289 25.4238 21.7735C25.3835 21.6694 25.3273 21.57 25.2549 21.4796C24.258 20.2086 22.971 19.1993 21.4879 18.5761C22.3497 17.6661 22.8809 16.4203 22.8809 15.0462C22.8809 12.2592 20.6956 10 18 10ZM18 20.0923C16.1012 20.0923 14.4042 20.8453 13.1169 22.0896C14.496 23.1623 16.1374 23.7846 18 23.7846C19.8626 23.7846 21.504 23.1623 22.883 22.0896C21.5958 20.8453 19.8987 20.0923 18 20.0923Z" fill="white"/>
</svg>
