<svg width="24" height="32" viewBox="0 0 24 32" fill="none" xmlns="http://www.w3.org/2000/svg">
<path fill-rule="evenodd" clip-rule="evenodd" d="M17.5281 5.37951C17.5281 6.80794 16.956 8.10634 16.0226 9.06953C20.6716 10.6788 24 14.9985 24 20.0747C24 21.7333 23.6439 23.3141 23.001 24.7462C22.7326 25.3438 22.0173 25.6166 21.4031 25.3555C20.789 25.0944 20.5087 24.3982 20.777 23.8006C21.2886 22.6611 21.573 21.4018 21.573 20.0747C21.573 14.9298 17.287 10.759 12 10.759C6.71296 10.759 2.42697 14.9298 2.42697 20.0747C2.42697 21.4018 2.71138 22.6611 3.22298 23.8006C3.49133 24.3982 3.21098 25.0944 2.59686 25.3555C1.98273 25.6166 1.26736 25.3438 0.999036 24.7462C0.356068 23.3141 0 21.7333 0 20.0747C0 14.9985 3.32845 10.6788 7.97744 9.06953C7.04403 8.10634 6.47191 6.80794 6.47191 5.37951C6.47191 2.40849 8.94693 0 12 0C15.0531 0 17.5281 2.40849 17.5281 5.37951ZM12 2.36173C10.2873 2.36173 8.89888 3.71283 8.89888 5.37951C8.89888 7.04618 10.2873 8.39728 12 8.39728C13.7127 8.39728 15.1011 7.04618 15.1011 5.37951C15.1011 3.71283 13.7127 2.36173 12 2.36173ZM11.9999 16.9622C10.3136 16.9622 8.94656 18.3448 8.94656 20.0504C8.94656 21.7559 10.3136 23.1385 11.9999 23.1385C13.6863 23.1385 15.0533 21.7559 15.0533 20.0504C15.0533 18.3448 13.6863 16.9622 11.9999 16.9622ZM6.55696 20.0504C6.55696 17.0101 8.99388 14.5455 11.9999 14.5455C15.006 14.5455 17.4429 17.0101 17.4429 20.0504C17.4429 21.5494 16.8505 22.9085 15.8895 23.9012C17.5434 24.581 18.9786 25.6821 20.0903 27.0687C20.171 27.1672 20.2337 27.2757 20.2786 27.3893C20.3456 27.5588 20.3725 27.7392 20.361 27.9167C20.3417 28.2151 20.2136 28.5053 19.9836 28.7215C17.8805 30.7395 15.1667 32 11.9999 32C8.83327 32 6.11937 30.7395 4.01633 28.7218C3.92369 28.6345 3.84757 28.5354 3.78844 28.4285C3.6118 28.1098 3.58846 27.7261 3.72127 27.3893C3.76614 27.2757 3.82885 27.1672 3.90949 27.0687C5.02121 25.6821 6.45652 24.5811 8.11039 23.9012C7.14939 22.9085 6.55696 21.5494 6.55696 20.0504ZM6.5546 27.7341C7.99006 26.3767 9.88249 25.5552 11.9999 25.5552C14.1174 25.5552 16.0098 26.3767 17.4453 27.7341C15.9074 28.9044 14.077 29.5832 11.9999 29.5832C9.92293 29.5832 8.09249 28.9044 6.5546 27.7341Z" fill="white"/>
</svg>
