<svg width="657" height="121" viewBox="0 0 657 121" fill="none" xmlns="http://www.w3.org/2000/svg">
<path fill-rule="evenodd" clip-rule="evenodd" d="M59.417 34.5618C62.8784 30.8913 65 25.9434 65 20.5C65 9.17816 55.8218 0 44.5 0C33.1782 0 24 9.17816 24 20.5C24 25.9434 26.1216 30.8913 29.583 34.5618C12.343 40.6943 0 57.1557 0 76.5C0 82.8205 1.32042 88.8445 3.70476 94.3017C4.6998 96.5791 7.35263 97.6186 9.63002 96.6236C11.9074 95.6286 12.947 92.9757 11.9519 90.6983C10.0547 86.3561 9 81.5571 9 76.5C9 56.8939 24.8939 41 44.5 41C64.1061 41 80 56.8939 80 76.5C80 81.5571 78.9453 86.3561 77.0481 90.6983C76.053 92.9757 77.0926 95.6286 79.37 96.6236C81.6474 97.6186 84.3002 96.5791 85.2952 94.3017C87.6796 88.8445 89 82.8205 89 76.5C89 57.1557 76.657 40.6943 59.417 34.5618ZM33 20.5C33 14.1487 38.1487 9 44.5 9C50.8513 9 56 14.1487 56 20.5C56 26.8513 50.8513 32 44.5 32C38.1487 32 33 26.8513 33 20.5Z" fill="#003876"/>
<path fill-rule="evenodd" clip-rule="evenodd" d="M33 76.5C33 70.1487 38.1487 65 44.5 65C50.8513 65 56 70.1487 56 76.5C56 82.8513 50.8513 88 44.5 88C38.1487 88 33 82.8513 33 76.5ZM44.5 56C33.1782 56 24 65.1782 24 76.5C24 82.0824 26.2313 87.1436 29.8507 90.8405C23.6217 93.3722 18.2159 97.4724 14.0288 102.636C13.7251 103.003 13.4889 103.407 13.3199 103.83C12.8197 105.084 12.9076 106.513 13.5729 107.7C13.7956 108.098 14.0823 108.467 14.4312 108.792C22.3519 116.306 32.5733 121 44.5 121C56.4268 121 66.6481 116.306 74.5688 108.791C75.4351 107.986 75.9175 106.905 75.9904 105.794C76.0338 105.133 75.9322 104.461 75.6801 103.83C75.511 103.407 75.2748 103.003 74.9709 102.636C70.7839 97.4723 65.3782 93.3721 59.1493 90.8405C62.7687 87.1436 65 82.0824 65 76.5C65 65.1782 55.8218 56 44.5 56ZM44.4999 97C36.525 97 29.3975 100.059 23.9911 105.114C29.7833 109.472 36.6773 112 44.5 112C52.3228 112 59.2168 109.472 65.0089 105.114C59.6025 100.059 52.4748 97 44.4999 97Z" fill="#1FC57F"/>
<path d="M143.78 54.8999C138.18 54.8999 133.78 57.14 130.1 60.9799V41.38C130.1 39.2999 128.5 37.7 126.42 37.7C124.42 37.7 122.82 39.2999 122.82 41.38V93.3C122.82 95.3 124.42 96.9 126.42 96.9C128.5 96.9 130.1 95.3 130.1 93.3V91.22C133.78 95.06 138.18 97.3 143.78 97.3C153.46 97.3 163.14 89.7 163.14 76.0999C163.14 62.5 153.46 54.8999 143.78 54.8999ZM142.74 90.5C137.54 90.5 133.22 87.94 130.1 84.5V67.7C133.22 64.26 137.54 61.6999 142.74 61.6999C150.34 61.6999 155.86 66.6599 155.86 76.0999C155.86 85.54 150.34 90.5 142.74 90.5Z" fill="black"/>
<path d="M188.649 54.8999C182.969 54.8999 178.569 56.18 174.809 57.7799C173.449 58.3399 172.729 59.46 172.729 60.82C172.729 62.58 174.089 63.86 175.689 63.86C176.009 63.86 176.409 63.78 176.729 63.7C179.689 62.74 182.889 61.78 187.369 61.78C194.569 61.78 198.089 64.5799 198.089 71.7V72.34H188.409C175.929 72.34 170.009 77.78 170.009 85.3C170.009 92.82 176.089 97.3 183.049 97.3C190.569 97.3 195.209 94.18 198.089 91.22V93.3C198.089 95.3 199.689 96.9 201.689 96.9C203.689 96.9 205.369 95.3 205.369 93.3V70.66C205.369 62.8199 200.329 54.8999 188.649 54.8999ZM185.769 90.9C179.289 90.9 177.289 87.94 177.289 84.5C177.289 79.9399 181.849 78.18 189.369 78.18H198.089V84.9C195.369 88.02 190.729 90.9 185.769 90.9Z" fill="black"/>
<path d="M238.624 54.8999C233.024 54.8999 228.624 57.14 224.944 60.9799V41.38C224.944 39.2999 223.344 37.7 221.264 37.7C219.264 37.7 217.664 39.2999 217.664 41.38V93.3C217.664 95.3 219.264 96.9 221.264 96.9C223.344 96.9 224.944 95.3 224.944 93.3V91.22C228.624 95.06 233.024 97.3 238.624 97.3C248.304 97.3 257.984 89.7 257.984 76.0999C257.984 62.5 248.304 54.8999 238.624 54.8999ZM237.584 90.5C232.384 90.5 228.064 87.94 224.944 84.5V67.7C228.064 64.26 232.384 61.6999 237.584 61.6999C245.184 61.6999 250.704 66.6599 250.704 76.0999C250.704 85.54 245.184 90.5 237.584 90.5Z" fill="black"/>
<path d="M302.142 58.98C302.142 56.98 300.542 55.2999 298.542 55.2999C296.942 55.2999 295.822 56.26 295.182 57.7L282.622 88.1L270.302 57.54C269.742 56.26 268.462 55.2999 266.942 55.2999C264.942 55.2999 263.342 56.98 263.342 58.98C263.342 59.54 263.502 60.1 263.662 60.5L278.702 97.14L273.502 110.5C273.342 110.9 273.262 111.38 273.262 111.78C273.262 113.7 274.782 115.3 276.702 115.3C278.382 115.3 279.422 114.26 280.062 112.82L301.902 60.34C302.062 59.94 302.142 59.46 302.142 58.98Z" fill="black"/>
<path d="M332.115 90.18C330.755 90.18 329.875 90.9 327.315 90.9C325.315 90.9 322.115 90.82 322.115 86.1V61.94H331.155C332.915 61.94 334.275 60.5799 334.275 58.82C334.275 57.0599 332.915 55.6999 331.155 55.6999H322.115V49.2999C322.115 48.42 321.475 47.7 320.595 47.7C319.955 47.7 319.475 48.1799 319.235 48.42L308.355 59.0599C307.875 59.4599 307.635 59.9399 307.635 60.4199C307.635 61.2999 308.275 61.94 309.155 61.94H314.835V86.74C314.835 96.66 322.755 97.3 326.515 97.3C329.075 97.3 331.235 96.74 333.155 95.86C334.275 95.3 334.995 94.42 334.995 93.06C334.995 91.38 333.555 90.18 332.115 90.18Z" fill="black"/>
<path d="M365.058 54.8999C357.938 54.8999 353.538 58.5799 350.178 62.2599V41.38C350.178 39.2999 348.498 37.7 346.498 37.7C344.498 37.7 342.898 39.2999 342.898 41.38V93.3C342.898 95.3 344.498 96.9 346.498 96.9C348.498 96.9 350.178 95.3 350.178 93.3V69.3C353.378 65.3 357.538 61.62 363.298 61.62C369.538 61.62 372.098 65.3 372.098 71.38V93.3C372.098 95.3 373.698 96.9 375.698 96.9C377.698 96.9 379.378 95.3 379.378 93.3V70.58C379.378 62.02 374.178 54.8999 365.058 54.8999Z" fill="black"/>
<path d="M405.648 97.3C412.768 97.3 417.168 93.62 420.528 89.94V93.22C420.528 95.3 422.208 96.9 424.208 96.9C426.208 96.9 427.808 95.3 427.808 93.22V58.9C427.808 56.8999 426.208 55.2999 424.208 55.2999C422.208 55.2999 420.528 56.8999 420.528 58.9V82.9C417.328 86.9 413.168 90.58 407.408 90.58C401.168 90.58 398.608 86.9 398.608 80.82V58.9C398.608 56.8999 397.008 55.2999 395.008 55.2999C393.008 55.2999 391.328 56.8999 391.328 58.9V81.62C391.328 90.18 396.528 97.3 405.648 97.3Z" fill="black"/>
<path d="M444.396 55.2999C442.396 55.2999 440.796 56.9 440.796 58.98V93.3C440.796 95.3 442.396 96.9 444.396 96.9C446.476 96.9 448.076 95.3 448.076 93.3V58.98C448.076 56.9 446.476 55.2999 444.396 55.2999ZM448.796 42.9799C448.796 40.74 446.956 38.9 444.716 38.9C444.556 38.9 444.396 38.9 444.236 38.9C441.996 38.9 440.156 40.74 440.156 42.9799C440.156 43.22 440.156 43.22 440.156 43.3C440.156 45.54 441.996 47.38 444.236 47.38C444.556 47.38 444.636 47.38 444.716 47.38C446.956 47.38 448.796 45.54 448.796 43.3C448.796 43.22 448.796 43.0599 448.796 42.9799Z" fill="black"/>
<path d="M465.823 67.14C465.823 63.94 469.103 61.54 475.023 61.54C478.543 61.54 481.583 62.18 484.143 62.9799C484.463 63.06 484.783 63.1399 485.183 63.1399C487.023 63.1399 488.383 61.62 488.383 59.94C488.383 58.7399 487.583 57.38 486.063 56.9C482.783 55.6999 478.863 54.8999 474.463 54.8999C464.063 54.8999 458.863 60.34 458.863 67.54C458.863 82.1 482.863 78.02 482.863 84.9C482.863 88.5 480.143 90.58 473.983 90.58C469.263 90.58 465.983 89.46 463.103 88.18C462.543 87.94 462.143 87.86 461.663 87.86C459.823 87.86 458.543 89.46 458.543 91.06C458.543 92.18 459.103 93.14 459.903 93.7C463.983 95.94 468.623 97.3 474.463 97.3C484.703 97.3 489.903 91.94 489.903 85.46C489.903 69.78 465.823 75.46 465.823 67.14Z" fill="black"/>
<path d="M529.701 93.14C529.701 91.22 528.181 89.7 526.261 89.7H505.701L528.101 63.46C528.821 62.58 529.221 61.54 529.221 60.26C529.221 57.54 527.301 55.6999 524.581 55.6999H500.341C498.421 55.6999 496.981 57.22 496.981 59.14C496.981 61.06 498.421 62.5 500.341 62.5H520.581L497.541 88.98C496.741 89.86 496.261 90.98 496.261 92.26C496.261 95.06 498.501 96.5 501.301 96.5H526.261C528.181 96.5 529.701 95.06 529.701 93.14Z" fill="black"/>
<path d="M557.383 54.8999C544.983 54.8999 536.903 63.4599 536.903 76.0999C536.903 88.74 544.983 97.3 557.383 97.3C569.703 97.3 577.863 88.74 577.863 76.0999C577.863 63.4599 569.703 54.8999 557.383 54.8999ZM557.383 90.66C551.223 90.66 544.183 86.66 544.183 76.02C544.183 65.46 551.223 61.54 557.383 61.54C563.463 61.54 570.583 65.46 570.583 76.02C570.583 86.66 563.463 90.66 557.383 90.66Z" fill="black"/>
<path d="M608.294 54.8999H607.894C602.374 54.8999 598.214 58.5799 595.334 62.42V58.98C595.334 56.98 593.654 55.2999 591.654 55.2999C589.654 55.2999 588.054 56.98 588.054 58.98V93.3C588.054 95.3 589.654 96.9 591.654 96.9C593.654 96.9 595.334 95.3 595.334 93.3V68.98C598.134 64.82 602.454 61.94 607.734 61.94H608.134C610.214 61.94 611.814 60.5799 611.814 58.5C611.814 56.5 610.294 54.8999 608.294 54.8999Z" fill="black"/>
<path d="M653.152 55.2999C651.152 55.2999 649.552 56.98 649.552 58.98V60.9799C646.272 57.4599 641.872 54.8999 635.872 54.8999C626.992 54.8999 616.512 61.54 616.512 75.7C616.512 89.86 626.992 96.5 635.872 96.5C641.872 96.5 646.272 93.94 649.552 90.42V95.78C649.552 104.42 645.472 108.82 637.312 108.82C631.872 108.82 627.472 107.46 624.112 105.78C623.712 105.62 623.232 105.46 622.672 105.46C620.832 105.46 619.472 107.14 619.472 108.74C619.472 110.26 620.112 111.06 620.912 111.54C624.672 113.7 631.552 115.7 638.032 115.7C650.032 115.7 656.832 108.18 656.832 94.74V58.98C656.832 56.98 655.152 55.2999 653.152 55.2999ZM649.552 83.94C646.592 86.98 642.912 89.86 637.392 89.86C629.792 89.86 623.792 85.3 623.792 75.7C623.792 66.1 629.792 61.54 637.392 61.54C642.912 61.54 646.592 64.42 649.552 67.46V83.94Z" fill="black"/>
</svg>
